<?xml version="1.0" encoding="utf-8"?>
<!-- Generator: Adobe Illustrator 26.0.3, SVG Export Plug-In . SVG Version: 6.00 Build 0)  -->
<svg version="1.1" id="Layer_1" xmlns="http://www.w3.org/2000/svg" xmlns:xlink="http://www.w3.org/1999/xlink" x="0px" y="0px"
	 viewBox="0 0 1512 657" style="enable-background:new 0 0 1512 657;" xml:space="preserve">
<style type="text/css">
	.st0{fill-rule:evenodd;clip-rule:evenodd;fill:url(#SVGID_1_);}
	
		.st1{fill-rule:evenodd;clip-rule:evenodd;fill:url(#SVGID_00000021081080489933515830000012491913324602330009_);fill-opacity:0.5;}
</style>
<linearGradient id="SVGID_1_" gradientUnits="userSpaceOnUse" x1="756" y1="658" x2="756" y2="-33.9999" gradientTransform="matrix(1 0 0 -1 0 658)">
	<stop  offset="0" style="stop-color:#0D99FF"/>
	<stop  offset="0.5156" style="stop-color:#71C3FA"/>
	<stop  offset="1" style="stop-color:#0099FF;stop-opacity:1.000000e-02"/>
	<stop  offset="1" style="stop-color:#E1F3FF"/>
</linearGradient>
<path class="st0" d="M0,83.5h50.3c50.3,0,151,0,251.7,66.8C403.7,219,504.3,356.3,605,438s201.3,109.5,302,68.7
	c100.7-40.8,201.3-150.3,303-246.8c100.7-94.7,201.3-176.3,251.7-217.1L1512,0v657h-50.3c-50.3,0-151,0-251.7,0
	c-101.7,0-202.4,0-303,0c-100.7,0-201.3,0-302,0s-201.3,0-303,0c-100.7,0-201.3,0-251.7,0H0V83.5z"/>
<linearGradient id="SVGID_00000041289003694026234180000009785670650050163376_" gradientUnits="userSpaceOnUse" x1="756" y1="379" x2="756" y2="1" gradientTransform="matrix(1 0 0 -1 0 658)">
	<stop  offset="0" style="stop-color:#0077C6"/>
	<stop  offset="1" style="stop-color:#76AACC"/>
</linearGradient>
<path style="fill-rule:evenodd;clip-rule:evenodd;fill:url(#SVGID_00000041289003694026234180000009785670650050163376_);fill-opacity:0.5;" d="
	M0,412.3l62.7,20.7c63.7,20.7,189,60.8,315.3,20.7c126.3-41.5,251.7-163.1,378-174.2c126.3-9.7,251.7,92.6,378,143.8
	c126.3,49.8,251.7,49.8,315.3,49.8h62.7V657h-62.7c-63.7,0-189,0-315.3,0s-251.7,0-378,0s-251.7,0-378,0s-251.7,0-315.3,0H0V412.3z"
	/>
</svg>
